<svg xmlns="http://www.w3.org/2000/svg" width="40" height="40" viewBox="0 0 40 40">
  <path id="check-square" d="M34.821,32H4.179A4.179,4.179,0,0,0,0,36.179V66.821A4.179,4.179,0,0,0,4.179,71H34.821A4.179,4.179,0,0,0,39,66.821V36.179A4.179,4.179,0,0,0,34.821,32Zm0,34.821H4.179V36.179H34.821ZM31.7,45.778l-15.024,14.9a1.045,1.045,0,0,1-1.477-.006l-7.9-7.967A1.045,1.045,0,0,1,7.3,51.232L9.279,49.27a1.045,1.045,0,0,1,1.477.006l5.205,5.247L28.266,42.318a1.045,1.045,0,0,1,1.477.006L31.705,44.3a1.045,1.045,0,0,1-.006,1.477Z" transform="translate(0.5 -31.5)" fill="#e8e8e8" stroke="#000" stroke-width="1"/>
</svg>
