<svg xmlns="http://www.w3.org/2000/svg" width="32" height="32" viewBox="0 0 32 32">
  <path id="check-square" d="M28.571,32H3.429A3.429,3.429,0,0,0,0,35.429V60.571A3.429,3.429,0,0,0,3.429,64H28.571A3.429,3.429,0,0,0,32,60.571V35.429A3.429,3.429,0,0,0,28.571,32Zm0,28.571H3.429V35.429H28.571ZM26.01,43.305,13.682,55.534a.857.857,0,0,1-1.212,0L5.985,48.993a.857.857,0,0,1,0-1.212l1.623-1.61a.857.857,0,0,1,1.212,0L13.1,50.481l10.1-10.015a.857.857,0,0,1,1.212,0l1.61,1.623a.857.857,0,0,1,0,1.212Z" transform="translate(0 -32)" fill="#495464"/>
</svg>
