<svg xmlns="http://www.w3.org/2000/svg" width="40" height="40" viewBox="0 0 40 40"><path d="M16.259,39.975l-2.694-.883a.646.646,0,0,1-.382-.773L22.96.452a.555.555,0,0,1,.688-.43l2.694.883a.646.646,0,0,1,.382.773L16.947,39.545A.547.547,0,0,1,16.259,39.975Zm-5.778-9.461,1.889-2.266a.689.689,0,0,0-.035-.9L4.967,20l7.368-7.351a.681.681,0,0,0,.035-.9L10.481,9.483A.515.515,0,0,0,9.7,9.452L.127,19.546a.678.678,0,0,0,0,.914L9.7,30.545A.515.515,0,0,0,10.481,30.514Zm19.729.031L39.773,20.46a.678.678,0,0,0,0-.914L30.21,9.452a.51.51,0,0,0-.785.031l-1.889,2.266a.689.689,0,0,0,.035.9L34.94,20,27.572,27.35a.681.681,0,0,0-.035.9l1.889,2.266a.515.515,0,0,0,.785.031Z" transform="translate(0.05 0.001)"/></svg>