<svg xmlns="http://www.w3.org/2000/svg" width="47.37" height="63.161" viewBox="0 0 47.37 63.161">
  <path id="code-merge" d="M37.5,23.685a9.858,9.858,0,0,0-9.61,7.648A19.057,19.057,0,0,1,17.542,26.7a14.9,14.9,0,0,1-4.157-7.6,9.88,9.88,0,1,0-6.476.185V43.867a9.889,9.889,0,1,0,5.921.012V30.359c.2.21.407.419.617.617,4.848,4.626,11.152,6,14.951,6.39a9.869,9.869,0,1,0,9.1-13.681ZM9.869,7.9A1.974,1.974,0,1,1,7.9,9.869,1.98,1.98,0,0,1,9.869,7.9Zm0,47.371a1.974,1.974,0,1,1,1.974-1.974A1.98,1.98,0,0,1,9.869,55.266ZM37.5,35.528a1.974,1.974,0,1,1,1.974-1.974A1.98,1.98,0,0,1,37.5,35.528Z"/>
</svg>
