<svg xmlns="http://www.w3.org/2000/svg" width="59.213" height="47.372" viewBox="0 0 59.213 47.372">
  <path id="github-alt" d="M22.957,96.654c0,2.578-1.345,6.8-4.527,6.8s-4.527-4.219-4.527-6.8,1.345-6.8,4.527-6.8S22.957,94.075,22.957,96.654Zm36.256-6.23c0,3.935-.395,8.1-2.159,11.719-4.675,9.449-17.53,9.227-26.732,9.227-9.351,0-22.97.333-27.83-9.227A26.405,26.405,0,0,1,0,90.424,21.215,21.215,0,0,1,5.119,76.41a19.311,19.311,0,0,1-.95-6.02c0-2.652.6-3.985,1.8-6.39,5.588,0,9.166,1.11,13.422,4.441a47.252,47.252,0,0,1,10.942-1.234,42.554,42.554,0,0,1,9.918,1.135C44.447,65.049,48.024,64,53.551,64c1.209,2.406,1.8,3.738,1.8,6.39a19.04,19.04,0,0,1-.95,5.946A21.255,21.255,0,0,1,59.213,90.424Zm-7.932,6.23c0-5.416-3.294-10.19-9.067-10.19a50.721,50.721,0,0,0-6.908.74,36.246,36.246,0,0,1-5.564.395,36.468,36.468,0,0,1-5.564-.395,49.9,49.9,0,0,0-6.908-.74c-5.773,0-9.067,4.774-9.067,10.19,0,10.831,9.918,12.5,18.553,12.5H32.7C41.375,109.15,51.281,107.5,51.281,96.654Zm-10.19-6.8c-3.183,0-4.527,4.219-4.527,6.8s1.345,6.8,4.527,6.8,4.527-4.219,4.527-6.8S44.274,89.856,41.091,89.856Z" transform="translate(0 -64)"/>
</svg>
