<svg xmlns="http://www.w3.org/2000/svg" xmlns:xlink="http://www.w3.org/1999/xlink" width="50" height="34" viewBox="0 0 50 34">
  <defs>
    <filter id="infinity" x="0" y="0" width="50" height="34" filterUnits="userSpaceOnUse">
      <feOffset dy="3" input="SourceAlpha"/>
      <feGaussianBlur stdDeviation="3" result="blur"/>
      <feFlood flood-opacity="0.282"/>
      <feComposite operator="in" in2="blur"/>
      <feComposite in="SourceGraphic"/>
    </filter>
  </defs>
  <g transform="matrix(1, 0, 0, 1, 0, 0)" filter="url(#infinity)">
    <path id="infinity-2" data-name="infinity" d="M24.444,112c-4.128,0-7.134-4.122-8.444-6.322-1.31,2.2-4.315,6.322-8.444,6.322a8.013,8.013,0,0,1,0-16c4.128,0,7.133,4.123,8.444,6.323,1.31-2.2,4.316-6.323,8.444-6.323a8.013,8.013,0,0,1,0,16ZM7.556,97.6a6.417,6.417,0,0,0,0,12.8c3.9,0,6.824-5.03,7.547-6.4C14.38,102.631,11.458,97.6,7.556,97.6Zm16.888,0c-3.9,0-6.823,5.03-7.547,6.4.723,1.37,3.646,6.4,7.547,6.4a6.417,6.417,0,0,0,0-12.8Z" transform="translate(9 -90)" fill="#707070"/>
  </g>
</svg>
