<svg xmlns="http://www.w3.org/2000/svg" width="56.013" height="56" viewBox="0 0 56.013 56">
  <path id="instagram" d="M27.938,45.467A14.358,14.358,0,1,0,42.3,59.825,14.335,14.335,0,0,0,27.938,45.467Zm0,23.692a9.334,9.334,0,1,1,9.334-9.334,9.351,9.351,0,0,1-9.334,9.334ZM46.231,44.88a3.349,3.349,0,1,1-3.349-3.349A3.341,3.341,0,0,1,46.231,44.88Zm9.509,3.4c-.212-4.486-1.237-8.46-4.523-11.734s-7.248-4.3-11.734-4.523c-4.623-.262-18.481-.262-23.1,0-4.474.212-8.447,1.237-11.734,4.511S.347,43.78.122,48.266c-.262,4.623-.262,18.481,0,23.1.212,4.486,1.237,8.46,4.523,11.734s7.248,4.3,11.734,4.523c4.623.262,18.481.262,23.1,0,4.486-.212,8.46-1.237,11.734-4.523s4.3-7.248,4.523-11.734C56,66.748,56,52.9,55.741,48.279ZM49.768,76.332a9.45,9.45,0,0,1-5.323,5.323c-3.686,1.462-12.433,1.125-16.507,1.125S15.1,83.1,11.431,81.655a9.45,9.45,0,0,1-5.323-5.323C4.645,72.646,4.983,63.9,4.983,59.825S4.658,46.992,6.107,43.318a9.45,9.45,0,0,1,5.323-5.323c3.686-1.462,12.433-1.125,16.507-1.125s12.833-.325,16.507,1.125a9.45,9.45,0,0,1,5.323,5.323C51.23,47,50.892,55.751,50.892,59.825S51.23,72.658,49.768,76.332Z" transform="translate(0.075 -31.825)"/>
</svg>
