<svg xmlns="http://www.w3.org/2000/svg" width="56" height="56" viewBox="0 0 56 56">
  <path id="linkedin" d="M52,32H3.987A4.017,4.017,0,0,0,0,36.037V83.963A4.017,4.017,0,0,0,3.987,88H52a4.028,4.028,0,0,0,4-4.037V36.037A4.028,4.028,0,0,0,52,32ZM16.925,80h-8.3V53.275h8.313V80Zm-4.15-30.375a4.813,4.813,0,1,1,4.813-4.812A4.815,4.815,0,0,1,12.775,49.625ZM48.037,80h-8.3V67c0-3.1-.062-7.088-4.312-7.088-4.325,0-4.987,3.375-4.987,6.863V80h-8.3V53.275H30.1v3.65h.112a8.742,8.742,0,0,1,7.863-4.312c8.4,0,9.962,5.538,9.962,12.737Z" transform="translate(0 -32)"/>
</svg>
