<svg xmlns="http://www.w3.org/2000/svg" width="56" height="56" viewBox="0 0 56 56">
  <path id="mail" d="M49,0H7C3.135,0,0,4.181,0,9.333V46.667C0,51.819,3.135,56,7,56H49c3.865,0,7-4.181,7-9.333V9.333C56,4.181,52.865,0,49,0Zm0,46.667H7V23.333c2.115,2.139,11.667,11.3,11.667,11.3,2.1,2.178,5.629,5.814,9.333,5.814s7.233-3.636,9.333-5.814c0,0,9.552-9.158,11.667-11.3Zm0-34.728c-.35.35-16.3,15.925-17.077,16.625-1.24,1.128-2.785,2.547-3.923,2.547-1.371,0-3.31-2.042-4.594-3.4C22.91,27.183,7.35,11.667,7,11.317V9.333H49Z"/>
</svg>
