<svg xmlns="http://www.w3.org/2000/svg" width="30" height="30" viewBox="0 0 30 30">
  <path id="medium" d="M0,32V62H30V32Zm24.924,7.1-1.607,1.54a.472.472,0,0,0-.181.449V52.431a.461.461,0,0,0,.181.449l1.574,1.54v.342h-7.9v-.328l1.627-1.58c.161-.161.161-.208.161-.449V43.237L14.25,54.728h-.609L8.371,43.237v7.7a1.059,1.059,0,0,0,.295.884l2.116,2.565v.342H4.768v-.342l2.116-2.565a1.025,1.025,0,0,0,.275-.884V42.031a.765.765,0,0,0-.254-.656L5.022,39.1v-.342h5.846l4.513,9.911,3.971-9.9h5.571Z" transform="translate(0 -32)"/>
</svg>
