<svg xmlns="http://www.w3.org/2000/svg" width="56" height="56" viewBox="0 0 56 56">
  <path id="phone-square-alt" d="M43.091,66.625l-7-3A1.808,1.808,0,0,0,35.5,63.5a1.7,1.7,0,0,0-1.161.55l-3.1,3.789A23.189,23.189,0,0,1,20.161,56.761l3.789-3.1A1.7,1.7,0,0,0,24.5,52.5a1.775,1.775,0,0,0-.125-.591l-3-7A1.625,1.625,0,0,0,20,44a1.814,1.814,0,0,0-.337.039l-6.5,1.5A1.571,1.571,0,0,0,12,47,29,29,0,0,0,41,76a1.571,1.571,0,0,0,1.461-1.162l1.5-6.5A1.813,1.813,0,0,0,44,68a1.625,1.625,0,0,0-.909-1.375ZM50,32H6a6,6,0,0,0-6,6V82a6,6,0,0,0,6,6H50a6,6,0,0,0,6-6V38a6,6,0,0,0-6-6Zm0,49.25a.75.75,0,0,1-.75.75H6.75A.75.75,0,0,1,6,81.25V38.75A.75.75,0,0,1,6.75,38h42.5a.75.75,0,0,1,.75.75Z" transform="translate(0 -32)"/>
</svg>
