<svg xmlns="http://www.w3.org/2000/svg" width="56" height="56" viewBox="0 0 56 56">
  <path id="twitter-square" d="M50,32H6a6,6,0,0,0-6,6V82a6,6,0,0,0,6,6H50a6,6,0,0,0,6-6V38A6,6,0,0,0,50,32ZM43.888,51.85c.025.35.025.713.025,1.063,0,10.837-8.25,23.325-23.325,23.325A23.218,23.218,0,0,1,8,72.563a17.275,17.275,0,0,0,1.975.1,16.437,16.437,0,0,0,10.175-3.5,8.209,8.209,0,0,1-7.662-5.687,8.836,8.836,0,0,0,3.7-.15,8.2,8.2,0,0,1-6.562-8.05v-.1a8.193,8.193,0,0,0,3.7,1.037,8.181,8.181,0,0,1-3.65-6.825,8.1,8.1,0,0,1,1.112-4.138,23.278,23.278,0,0,0,16.9,8.575,8.216,8.216,0,0,1,13.987-7.487,16.064,16.064,0,0,0,5.2-1.975,8.177,8.177,0,0,1-3.6,4.513A16.315,16.315,0,0,0,48,47.6,17.256,17.256,0,0,1,43.888,51.85Z" transform="translate(0 -32)"/>
</svg>
